<?xml version="1.0" standalone="no"?>
<!DOCTYPE svg PUBLIC "-//W3C//DTD SVG 20010904//EN"
 "http://www.w3.org/TR/2001/REC-SVG-20010904/DTD/svg10.dtd">
<svg version="1.0" xmlns="http://www.w3.org/2000/svg"
 width="400.000000pt" height="400.000000pt" viewBox="0 0 400.000000 400.000000"
 preserveAspectRatio="xMidYMid meet">

<g transform="translate(0.000000,400.000000) scale(0.100000,-0.100000)"
fill="#000000" stroke="none">
<path d="M3040 3774 c-118 -20 -155 -30 -225 -63 -157 -74 -259 -175 -333
-330 -20 -40 -41 -97 -47 -125 l-12 -51 -382 -3 -382 -2 3 -70 3 -70 378 0
377 0 0 -30 c0 -55 22 -135 60 -215 74 -159 176 -261 335 -336 97 -45 174 -62
280 -62 106 0 183 17 280 62 159 75 261 177 336 336 45 97 62 174 62 280 0
106 -17 183 -62 280 -75 159 -177 261 -336 336 -103 48 -255 77 -335 63z"/>
<path d="M1460 2615 l-45 -45 574 -574 574 -574 46 47 46 46 -570 573 c-313
314 -572 572 -575 572 -3 0 -26 -20 -50 -45z"/>
<path d="M1660 1013 c0 -10 -3 -42 -6 -70 l-7 -53 388 0 388 0 -7 46 c-3 26
-6 57 -6 70 l0 24 -375 0 c-350 0 -375 -1 -375 -17z"/>
</g>
</svg>
